{
  "accessors": [
    {
      "bufferView": 1,
      "componentType": 5126,
      "count": 65532,
      "max": [
        18.197172164916992,
        19.870088577270508,
        99.41279602050781
      ],
      "min": [
        -22.600072860717773,
        -1.6130242347717285,
        38.84847640991211
      ],
      "type": "VEC3"
    },
    {
      "bufferView": 1,
      "byteOffset": 786384,
      "componentType": 5126,
      "count": 65532,
      "max": [
        0.9966937899589539,
        0.999999463558197,
        0.5117452144622803
      ],
      "min": [
        -1.0,
        -0.9999980926513672,
        -0.9696283340454102
      ],
      "type": "VEC3"
    },
    {
      "bufferView": 0,
      "componentType": 5125,
      "count": 362088,
      "type": "SCALAR"
    },
    {
      "bufferView": 1,
      "byteOffset": 1572768,
      "componentType": 5126,
      "count": 65532,
      "max": [
        25.1820125579834,
        19.870088577270508,
        98.5597915649414
      ],
      "min": [
        -23.134380340576172,
        -6.67011022567749,
        2.0619289875030518
      ],
      "type": "VEC3"
    },
    {
      "bufferView": 1,
      "byteOffset": 2359152,
      "componentType": 5126,
      "count": 65532,
      "max": [
        0.992896556854248,
        0.9999995827674866,
        0.9472932815551758
      ],
      "min": [
        -0.9999992847442627,
        -0.9999967813491821,
        -0.9999557733535767
      ],
      "type": "VEC3"
    },
    {
      "bufferView": 0,
      "byteOffset": 1448352,
      "componentType": 5125,
      "count": 349260,
      "type": "SCALAR"
    },
    {
      "bufferView": 1,
      "byteOffset": 3145536,
      "componentType": 5126,
      "count": 65532,
      "max": [
        25.290651321411133,
        19.467239379882813,
        98.85562896728516
      ],
      "min": [
        -25.297582626342773,
        -7.560306072235107,
        1.705825686454773
      ],
      "type": "VEC3"
    },
    {
      "bufferView": 1,
      "byteOffset": 3931920,
      "componentType": 5126,
      "count": 65532,
      "max": [
        0.9999945163726807,
        0.9999846816062927,
        0.9850186109542847
      ],
      "min": [
        -0.9999949932098389,
        -0.999941885471344,
        -0.9999959468841553
      ],
      "type": "VEC3"
    },
    {
      "bufferView": 0,
      "byteOffset": 2845392,
      "componentType": 5125,
      "count": 334713,
      "type": "SCALAR"
    },
    {
      "bufferView": 1,
      "byteOffset": 4718304,
      "componentType": 5126,
      "count": 65532,
      "max": [
        25.314786911010742,
        18.46459197998047,
        98.60081481933594
      ],
      "min": [
        -25.314624786376953,
        -7.432294845581055,
        1.705831527709961
      ],
      "type": "VEC3"
    },
    {
      "bufferView": 1,
      "byteOffset": 5504688,
      "componentType": 5126,
      "count": 65532,
      "max": [
        0.9999995827674866,
        0.9999974966049194,
        0.9850186109542847
      ],
      "min": [
        -0.9997450113296509,
        -0.9999892115592957,
        -0.9999970197677612
      ],
      "type": "VEC3"
    },
    {
      "bufferView": 0,
      "byteOffset": 4184244,
      "componentType": 5125,
      "count": 315594,
      "type": "SCALAR"
    },
    {
      "bufferView": 1,
      "byteOffset": 6291072,
      "componentType": 5126,
      "count": 56106,
      "max": [
        25.200754165649414,
        18.890941619873047,
        99.41279602050781
      ],
      "min": [
        -25.254310607910156,
        -7.478353977203369,
        1.705831527709961
      ],
      "type": "VEC3"
    },
    {
      "bufferView": 1,
      "byteOffset": 6964344,
      "componentType": 5126,
      "count": 56106,
      "max": [
        0.9999993443489075,
        0.9998883008956909,
        0.9793615937232971
      ],
      "min": [
        -0.9999409914016724,
        -0.9999932646751404,
        -0.9999970197677612
      ],
      "type": "VEC3"
    },
    {
      "bufferView": 0,
      "byteOffset": 5446620,
      "componentType": 5125,
      "count": 237333,
      "type": "SCALAR"
    },
    {
      "bufferView": 1,
      "byteOffset": 7637616,
      "componentType": 5126,
      "count": 65532,
      "max": [
        19.117645263671875,
        20.587406158447266,
        162.18133544921875
      ],
      "min": [
        -20.796039581298828,
        -9.974506378173828,
        95.62260437011719
      ],
      "type": "VEC3"
    },
    {
      "bufferView": 1,
      "byteOffset": 8424000,
      "componentType": 5126,
      "count": 65532,
      "max": [
        0.9984193444252014,
        0.999931275844574,
        0.9999985098838806
      ],
      "min": [
        -0.9999876022338867,
        -0.9999873042106628,
        -0.9926427006721497
      ],
      "type": "VEC3"
    },
    {
      "bufferView": 0,
      "byteOffset": 6395952,
      "componentType": 5125,
      "count": 350382,
      "type": "SCALAR"
    },
    {
      "bufferView": 1,
      "byteOffset": 9210384,
      "componentType": 5126,
      "count": 65532,
      "max": [
        20.8679141998291,
        19.60682487487793,
        176.4199676513672
      ],
      "min": [
        -19.838876724243164,
        -9.970094680786133,
        94.8038330078125
      ],
      "type": "VEC3"
    },
    {
      "bufferView": 1,
      "byteOffset": 9996768,
      "componentType": 5126,
      "count": 65532,
      "max": [
        0.9999678134918213,
        0.9999958872795105,
        0.9999992251396179
      ],
      "min": [
        -0.9979527592658997,
        -0.9998961687088013,
        -0.9926427006721497
      ],
      "type": "VEC3"
    },
    {
      "bufferView": 0,
      "byteOffset": 7797480,
      "componentType": 5125,
      "count": 336300,
      "type": "SCALAR"
    },
    {
      "bufferView": 1,
      "byteOffset": 10783152,
      "componentType": 5126,
      "count": 65532,
      "max": [
        20.555953979492188,
        17.347942352294922,
        179.3593292236328
      ],
      "min": [
        -20.529882431030273,
        -8.95762825012207,
        94.32115173339844
      ],
      "type": "VEC3"
    },
    {
      "bufferView": 1,
      "byteOffset": 11569536,
      "componentType": 5126,
      "count": 65532,
      "max": [
        0.9999868869781494,
        0.9999945759773254,
        0.9999486207962036
      ],
      "min": [
        -0.9982174634933472,
        -0.9999749064445496,
        -0.9887568950653076
      ],
      "type": "VEC3"
    },
    {
      "bufferView": 0,
      "byteOffset": 9142680,
      "componentType": 5125,
      "count": 321939,
      "type": "SCALAR"
    },
    {
      "bufferView": 1,
      "byteOffset": 12355920,
      "componentType": 5126,
      "count": 65532,
      "max": [
        20.48162841796875,
        11.43993091583252,
        179.26756286621094
      ],
      "min": [
        -20.5323543548584,
        -9.97327709197998,
        93.47531127929688
      ],
      "type": "VEC3"
    },
    {
      "bufferView": 1,
      "byteOffset": 13142304,
      "componentType": 5126,
      "count": 65532,
      "max": [
        0.9998893737792969,
        0.9999996423721313,
        0.9999498724937439
      ],
      "min": [
        -0.9999861717224121,
        -0.9999848008155823,
        -0.9994096159934998
      ],
      "type": "VEC3"
    },
    {
      "bufferView": 0,
      "byteOffset": 10430436,
      "componentType": 5125,
      "count": 327993,
      "type": "SCALAR"
    },
    {
      "bufferView": 1,
      "byteOffset": 13928688,
      "componentType": 5126,
      "count": 27969,
      "max": [
        20.878490447998047,
        18.756563186645508,
        179.03182983398438
      ],
      "min": [
        -20.878326416015625,
        -9.974506378173828,
        93.49139404296875
      ],
      "type": "VEC3"
    },
    {
      "bufferView": 1,
      "byteOffset": 14264316,
      "componentType": 5126,
      "count": 27969,
      "max": [
        0.9999880194664001,
        0.9045605063438416,
        0.9999992251396179
      ],
      "min": [
        -0.9999871253967285,
        -0.9999572038650513,
        -0.990617573261261
      ],
      "type": "VEC3"
    },
    {
      "bufferView": 0,
      "byteOffset": 11742408,
      "componentType": 5125,
      "count": 105252,
      "type": "SCALAR"
    },
    {
      "bufferView": 1,
      "byteOffset": 14599944,
      "componentType": 5126,
      "count": 65532,
      "max": [
        40.24418258666992,
        15.442152976989746,
        162.42942810058594
      ],
      "min": [
        -45.92082977294922,
        -8.712639808654785,
        105.16740417480469
      ],
      "type": "VEC3"
    },
    {
      "bufferView": 1,
      "byteOffset": 15386328,
      "componentType": 5126,
      "count": 65532,
      "max": [
        0.9863008260726929,
        1.0,
        0.9999960064888
      ],
      "min": [
        -0.9880186319351196,
        -0.9999961853027344,
        -0.9173333644866943
      ],
      "type": "VEC3"
    },
    {
      "bufferView": 0,
      "byteOffset": 12163416,
      "componentType": 5125,
      "count": 354558,
      "type": "SCALAR"
    },
    {
      "bufferView": 1,
      "byteOffset": 16172712,
      "componentType": 5126,
      "count": 65532,
      "max": [
        48.533687591552734,
        13.904733657836914,
        162.35545349121094
      ],
      "min": [
        -47.07145690917969,
        -14.4727783203125,
        87.90958404541016
      ],
      "type": "VEC3"
    },
    {
      "bufferView": 1,
      "byteOffset": 16959096,
      "componentType": 5126,
      "count": 65532,
      "max": [
        0.9974513053894043,
        0.9999920129776001,
        0.9998995065689087
      ],
      "min": [
        -0.9997299313545227,
        -0.9999789595603943,
        -0.9754126071929932
      ],
      "type": "VEC3"
    },
    {
      "bufferView": 0,
      "byteOffset": 13581648,
      "componentType": 5125,
      "count": 337869,
      "type": "SCALAR"
    },
    {
      "bufferView": 1,
      "byteOffset": 17745480,
      "componentType": 5126,
      "count": 65534,
      "max": [
        50.95720291137695,
        13.512864112854004,
        162.2602081298828
      ],
      "min": [
        -50.957035064697266,
        -14.4727783203125,
        85.2642593383789
      ],
      "type": "VEC3"
    },
    {
      "bufferView": 1,
      "byteOffset": 18531888,
      "componentType": 5126,
      "count": 65534,
      "max": [
        0.9999995231628418,
        0.9999961256980896,
        0.9754480719566345
      ],
      "min": [
        -0.9999991059303284,
        -0.999995768070221,
        -0.9991449117660522
      ],
      "type": "VEC3"
    },
    {
      "bufferView": 0,
      "byteOffset": 14933124,
      "componentType": 5125,
      "count": 354480,
      "type": "SCALAR"
    },
    {
      "bufferView": 1,
      "byteOffset": 19318296,
      "componentType": 5126,
      "count": 9833,
      "max": [
        46.69481658935547,
        7.344829559326172,
        162.42941284179688
      ],
      "min": [
        -46.62721633911133,
        -0.27281415462493896,
        106.51878356933594
      ],
      "type": "VEC3"
    },
    {
      "bufferView": 1,
      "byteOffset": 19436292,
      "componentType": 5126,
      "count": 9833,
      "max": [
        0.9923968315124512,
        0.9185889363288879,
        0.9999800324440002
      ],
      "min": [
        -0.9953615069389343,
        -0.9952523112297058,
        -0.7944842576980591
      ],
      "type": "VEC3"
    },
    {
      "bufferView": 0,
      "byteOffset": 16351044,
      "componentType": 5125,
      "count": 27486,
      "type": "SCALAR"
    },
    {
      "bufferView": 1,
      "byteOffset": 19554288,
      "componentType": 5126,
      "count": 626,
      "max": [
        20.74485206604004,
        9.25916862487793,
        149.3342742919922
      ],
      "min": [
        -20.744125366210938,
        -0.8431403636932373,
        98.10128021240234
      ],
      "type": "VEC3"
    },
    {
      "bufferView": 1,
      "byteOffset": 19561800,
      "componentType": 5126,
      "count": 626,
      "max": [
        0.9998512268066406,
        0.9507788419723511,
        0.2225438356399536
      ],
      "min": [
        -0.9999663233757019,
        -0.9964945912361145,
        -0.994170069694519
      ],
      "type": "VEC3"
    },
    {
      "bufferView": 0,
      "byteOffset": 16460988,
      "componentType": 5125,
      "count": 2787,
      "type": "SCALAR"
    }
  ],
  "asset": {
    "extras": {
      "author": "Chin Eeyang (https://sketchfab.com/chinyang1607)",
      "license": "CC-BY-4.0 (http://creativecommons.org/licenses/by/4.0/)",
      "source": "https://sketchfab.com/3d-models/male-body-5c818a5be6c84f898826d989f02932b0",
      "title": "Male body"
    },
    "generator": "Sketchfab-15.32.0",
    "version": "2.0"
  },
  "bufferViews": [
    {
      "buffer": 0,
      "byteLength": 16472136,
      "name": "floatBufferViews",
      "target": 34963
    },
    {
      "buffer": 0,
      "byteLength": 19569312,
      "byteOffset": 16472136,
      "byteStride": 12,
      "name": "floatBufferViews",
      "target": 34962
    }
  ],
  "buffers": [
    {
      "byteLength": 36041448,
      "uri": "scene.bin"
    }
  ],
  "materials": [
    {
      "doubleSided": true,
      "name": "material_0",
      "pbrMetallicRoughness": {
        "metallicFactor": 0.0,
        "roughnessFactor": 0.6
      }
    }
  ],
  "meshes": [
    {
      "name": "Object_0",
      "primitives": [
        {
          "attributes": {
            "NORMAL": 1,
            "POSITION": 0
          },
          "indices": 2,
          "material": 0,
          "mode": 4
        }
      ]
    },
    {
      "name": "Object_1",
      "primitives": [
        {
          "attributes": {
            "NORMAL": 4,
            "POSITION": 3
          },
          "indices": 5,
          "material": 0,
          "mode": 4
        }
      ]
    },
    {
      "name": "Object_2",
      "primitives": [
        {
          "attributes": {
            "NORMAL": 7,
            "POSITION": 6
          },
          "indices": 8,
          "material": 0,
          "mode": 4
        }
      ]
    },
    {
      "name": "Object_3",
      "primitives": [
        {
          "attributes": {
            "NORMAL": 10,
            "POSITION": 9
          },
          "indices": 11,
          "material": 0,
          "mode": 4
        }
      ]
    },
    {
      "name": "Object_4",
      "primitives": [
        {
          "attributes": {
            "NORMAL": 13,
            "POSITION": 12
          },
          "indices": 14,
          "material": 0,
          "mode": 4
        }
      ]
    },
    {
      "name": "Object_5",
      "primitives": [
        {
          "attributes": {
            "NORMAL": 16,
            "POSITION": 15
          },
          "indices": 17,
          "material": 0,
          "mode": 4
        }
      ]
    },
    {
      "name": "Object_6",
      "primitives": [
        {
          "attributes": {
            "NORMAL": 19,
            "POSITION": 18
          },
          "indices": 20,
          "material": 0,
          "mode": 4
        }
      ]
    },
    {
      "name": "Object_7",
      "primitives": [
        {
          "attributes": {
            "NORMAL": 22,
            "POSITION": 21
          },
          "indices": 23,
          "material": 0,
          "mode": 4
        }
      ]
    },
    {
      "name": "Object_8",
      "primitives": [
        {
          "attributes": {
            "NORMAL": 25,
            "POSITION": 24
          },
          "indices": 26,
          "material": 0,
          "mode": 4
        }
      ]
    },
    {
      "name": "Object_9",
      "primitives": [
        {
          "attributes": {
            "NORMAL": 28,
            "POSITION": 27
          },
          "indices": 29,
          "material": 0,
          "mode": 4
        }
      ]
    },
    {
      "name": "Object_10",
      "primitives": [
        {
          "attributes": {
            "NORMAL": 31,
            "POSITION": 30
          },
          "indices": 32,
          "material": 0,
          "mode": 4
        }
      ]
    },
    {
      "name": "Object_11",
      "primitives": [
        {
          "attributes": {
            "NORMAL": 34,
            "POSITION": 33
          },
          "indices": 35,
          "material": 0,
          "mode": 4
        }
      ]
    },
    {
      "name": "Object_12",
      "primitives": [
        {
          "attributes": {
            "NORMAL": 37,
            "POSITION": 36
          },
          "indices": 38,
          "material": 0,
          "mode": 4
        }
      ]
    },
    {
      "name": "Object_13",
      "primitives": [
        {
          "attributes": {
            "NORMAL": 40,
            "POSITION": 39
          },
          "indices": 41,
          "material": 0,
          "mode": 4
        }
      ]
    },
    {
      "name": "Object_14",
      "primitives": [
        {
          "attributes": {
            "NORMAL": 43,
            "POSITION": 42
          },
          "indices": 44,
          "material": 0,
          "mode": 4
        }
      ]
    }
  ],
  "nodes": [
    {
      "children": [
        1
      ],
      "matrix": [
        1.0,
        0.0,
        0.0,
        0.0,
        0.0,
        2.220446049250313e-16,
        -1.0,
        0.0,
        0.0,
        1.0,
        2.220446049250313e-16,
        0.0,
        0.0,
        0.0,
        0.0,
        1.0
      ],
      "name": "Sketchfab_model"
    },
    {
      "children": [
        2,
        3,
        4,
        5,
        6,
        7,
        8,
        9,
        10,
        11,
        12,
        13,
        14,
        15,
        16
      ],
      "name": "333.obj.cleaner.materialmerger.gles"
    },
    {
      "mesh": 0,
      "name": "Object_2"
    },
    {
      "mesh": 1,
      "name": "Object_3"
    },
    {
      "mesh": 2,
      "name": "Object_4"
    },
    {
      "mesh": 3,
      "name": "Object_5"
    },
    {
      "mesh": 4,
      "name": "Object_6"
    },
    {
      "mesh": 5,
      "name": "Object_7"
    },
    {
      "mesh": 6,
      "name": "Object_8"
    },
    {
      "mesh": 7,
      "name": "Object_9"
    },
    {
      "mesh": 8,
      "name": "Object_10"
    },
    {
      "mesh": 9,
      "name": "Object_11"
    },
    {
      "mesh": 10,
      "name": "Object_12"
    },
    {
      "mesh": 11,
      "name": "Object_13"
    },
    {
      "mesh": 12,
      "name": "Object_14"
    },
    {
      "mesh": 13,
      "name": "Object_15"
    },
    {
      "mesh": 14,
      "name": "Object_16"
    }
  ],
  "scene": 0,
  "scenes": [
    {
      "name": "Sketchfab_Scene",
      "nodes": [
        0
      ]
    }
  ]
}
